<?xml version="1.0" standalone="no"?><!DOCTYPE svg PUBLIC "-//W3C//DTD SVG 1.1//EN" "http://www.w3.org/Graphics/SVG/1.1/DTD/svg11.dtd"><svg t="1668414568561" class="icon" viewBox="0 0 1024 1024" version="1.1" xmlns="http://www.w3.org/2000/svg" p-id="1031" xmlns:xlink="http://www.w3.org/1999/xlink" width="200" height="200"><path d="M551.543809 258.531186 551.543809 174.094646l409.574529 0L223.858715 1018.842112 223.858715 89.530751 60.016168 89.530751 60.016168 5.094211l327.685094 0 0 591.310491 245.795659-253.436975L633.496922 258.531186 551.543809 258.531186 551.543809 258.531186zM822.810522 805.012624c32.475592 5.030533 56.545737 16.365151 72.528823 33.940178 16.174119 18.211803 24.324855 41.581494 24.324855 69.91804 0 29.100678-10.124743 53.807599-30.37423 74.057086-28.400224 27.381382-69.981718 41.072073-124.744481 41.072073-57.755612 0-100.738014-16.046763-128.692494-48.14029-11.143586-12.226105-20.631553-31.074684-28.400224-56.800448l72.528823-14.136434c5.348921 19.230645 13.308625 33.112369 23.815434 41.517816 16.874572 13.244947 37.315092 19.867421 61.32156 19.867421 25.025309 0 44.956408-5.985697 59.793296-17.766059 14.900566-12.226105 22.350849-28.209191 22.350849-48.14029 0-24.324855-9.42429-42.090915-28.400224-53.2345-13.881724-8.087059-33.239724-12.09875-58.265033-12.09875-21.586717 0-39.671165 0.891487-54.189665 2.483428l0-62.9135c13.499658 1.719296 29.864809 2.610783 49.22281 2.610783 25.28002 0 45.147441-5.603632 59.220198-16.68354 14.200112-10.825197 21.332007-26.044151 21.332007-45.656862 0-36.487283-22.287171-54.762764-66.861514-54.762764-24.324855 0-42.791369 5.221566-55.272185 15.664697-9.169579 8.851191-16.174119 21.841428-21.332007 39.034388l-72.465145-12.226105c11.143586-33.112369 27.190349-57.246191 48.14029-72.401468 25.725763-18.593869 58.838132-27.890803 99.337106-27.890803 42.281948 0 76.031093 9.806355 101.438468 29.355388 25.28002 19.931099 38.015546 46.357316 38.015546 79.087619 0 32.475592-11.716684 57.246191-34.95902 74.502829C863.18214 791.895031 846.816989 798.581183 822.810522 805.012624L822.810522 805.012624z" p-id="1032" fill="#ffea00"></path></svg>